<svg width="24" height="24" viewBox="0 0 24 24" fill="none" xmlns="http://www.w3.org/2000/svg">
<path fill-rule="evenodd" clip-rule="evenodd" d="M3 12C8 20 16 20 21 12C16 4 8 4 3 12ZM12 15C11.1999 15.0148 10.4282 14.7035 9.86236 14.1376C9.29651 13.5718 8.98519 12.8001 9 12C8.98519 11.1999 9.29651 10.4282 9.86236 9.86236C10.4282 9.29651 11.1999 8.98519 12 9C12.8001 8.98519 13.5718 9.29651 14.1376 9.86236C14.7035 10.4282 15.0148 11.1999 15 12C15.0148 12.8001 14.7035 13.5718 14.1376 14.1376C13.5718 14.7035 12.8001 15.0148 12 15Z" fill="#402D7C"/>
</svg>
