<svg width="19" height="18" viewBox="0 0 19 18" fill="none" xmlns="http://www.w3.org/2000/svg">
<path d="M0 6.10704C0 6.04017 0.0334202 5.97772 0.08906 5.94063L7.9469 0.702064C8.58999 0.273339 9.42255 0.253527 10.0853 0.651178L18.9029 5.94174C18.9631 5.97788 19 6.04299 19 6.11324V17.8C19 17.9105 18.9105 18 18.8 18H14.4379C14.3323 18 14.2438 17.9191 14.2285 17.8146C14.1131 17.0271 13.4147 14 9.5 14C5.58533 14 4.88694 17.0271 4.77149 17.8146C4.75617 17.9191 4.66772 18 4.56211 18H0.2C0.0895427 18 0 17.9105 0 17.8V6.10704Z" fill="#FF7462"/>
</svg>
