<svg id="Layer_9" data-name="Layer 9" xmlns="http://www.w3.org/2000/svg" viewBox="0 0 599.16 447.93">
  <defs>
    <style>
      .cls-1, .cls-2, .cls-3 {
        fill: #412d7c;
      }

      .cls-2, .cls-3, .cls-4, .cls-5 {
        stroke: #412d7c;
      }

      .cls-2, .cls-5 {
        stroke-miterlimit: 10;
        stroke-width: 20px;
      }

      .cls-3, .cls-4 {
        stroke-linejoin: round;
        stroke-width: 14px;
      }

      .cls-4 {
        fill: #ee6b60;
      }

      .cls-5 {
        fill: none;
      }
    </style>
  </defs>
  <g>
    <path class="cls-1" d="M1695.12,1581.36a222.06,222.06,0,0,1-40,65.59q-1.32,1.5-2.67,3a221.77,221.77,0,0,1-55.79,44.14c-1.24.69-2.49,1.37-3.74,2l-.67.35q-6.24,3.3-12.66,6.2a224.66,224.66,0,0,1-34,12.12q-6.55,1.76-13.21,3.1l-2.44.49a221.17,221.17,0,0,1-123-11.52q-5.55-2.19-10.91-4.63a221.28,221.28,0,0,1-101.17-92.74c-.75-1.32-1.48-2.64-2.2-4,0,0,35.89-18.35,75.09-38.55,53-27.29,111.93-57.94,96.61-51.27-5.46,2.38-1.25-5.29-4.23-4.05-109.94,46-171.07,62.26-180.59,64.67a221.42,221.42,0,0,1,1.92-157.65c44.93-114.23,174-170.41,288.19-125.48L1488.29,1500Z" transform="translate(-1198.77 -1274.4)"/>
    <path class="cls-2" d="M1485.78,1505.29q-23.19,10.11-46.68,19.57" transform="translate(-1198.77 -1274.4)"/>
    <path class="cls-2" d="M1278.54,1576.54l-.07,0-.24,0c-36.42,8.38-67.73,14.11-69.46,11.89,0-2.07,31.57-24.38,61.56-44.82,24.16-16.46,47.29-31.72,52.09-34.22,17.78-8.89,35.08-17.78,52.85-26.66l12.63-5.62c29.94-15,59.87-28.06,90.27-42.09,2.34-.94,4.21-1.4,6.55-2.34,12.12-5.38,12.6-5.64,24.63-10.66" transform="translate(-1198.77 -1274.4)"/>
    <path class="cls-3" d="M1790.78,1339.8c-3.77,10.16-31.07,29.69-74.15,54.22a224.08,224.08,0,0,0-25-41.23c57.68-18.45,95.52-25.54,99.32-16.81C1790.92,1336,1790.93,1337.32,1790.78,1339.8Z" transform="translate(-1198.77 -1274.4)"/>
    <path class="cls-4" d="M1736.23,1463.41a221.29,221.29,0,0,1-14.08,106.18L1626.47,1532l-111.15-43.72,32.29-82.11,49.06-124.72a221.3,221.3,0,0,1,94.93,71.39,224.08,224.08,0,0,1,25,41.23c43.08-24.53,70.38-44.06,74.15-54.22C1789.92,1354.87,1783.49,1411.89,1736.23,1463.41Z" transform="translate(-1198.77 -1274.4)"/>
    <path class="cls-5" d="M1294.85,1609.47s35-20.37,72.89-42.53c23.71-13.89,48.54-28.47,66.54-39.2,17.7-10.55,28.82-17.36,25.84-16.12-109.94,46-171.07,62.26-180.59,64.67l-1.32.33" transform="translate(-1198.77 -1274.4)"/>
  </g>
</svg>
