<svg width="16" height="16" viewBox="0 0 16 16" fill="none" xmlns="http://www.w3.org/2000/svg">
<path fill-rule="evenodd" clip-rule="evenodd" d="M13.4233 12.0384L11.8669 10.4752C12.4165 9.5971 12.7087 8.58127 12.71 7.5441C12.71 4.66627 10.3871 2.33333 7.52173 2.33333C4.65635 2.33333 2.3335 4.66627 2.3335 7.5441C2.3335 10.4219 4.65635 12.7549 7.52173 12.7549C8.56519 12.7626 9.58517 12.4439 10.4401 11.843L11.9966 13.4062C12.4093 13.7535 13.0106 13.7535 13.4233 13.4062C13.748 13.0086 13.748 12.436 13.4233 12.0384ZM4.27908 7.5441C4.2705 6.67775 4.60938 5.84437 5.21937 5.23174C5.82935 4.6191 6.65912 4.27875 7.52173 4.28737C8.38434 4.27875 9.21411 4.6191 9.82409 5.23174C10.4341 5.84437 10.773 6.67775 10.7644 7.5441C10.773 8.41045 10.4341 9.24383 9.82409 9.85647C9.21411 10.4691 8.38434 10.8095 7.52173 10.8008C6.65912 10.8095 5.82935 10.4691 5.21937 9.85647C4.60938 9.24383 4.2705 8.41045 4.27908 7.5441Z" fill="#402D7C"/>
</svg>
