<svg width="14" height="18" viewBox="0 0 14 18" fill="none" xmlns="http://www.w3.org/2000/svg">
<path fill-rule="evenodd" clip-rule="evenodd" d="M3 18C1.34315 18 0 16.6569 0 15V6H14V15C14 16.6569 12.6569 18 11 18H3ZM9 4C8.99671 2.8968 8.1032 2.00329 7 2C5.89703 2.00384 5.00384 2.89703 5 4C5.01655 4.26995 4.91652 4.53404 4.72528 4.72528C4.53404 4.91652 4.26995 5.01655 4 5C3.73014 5.01622 3.46625 4.91609 3.27508 4.72492C3.08391 4.53375 2.98378 4.26986 3 4C3.00659 1.7936 4.7936 0.0065896 7 0C9.2064 0.0065896 10.9934 1.7936 11 4C11.0166 4.26995 10.9165 4.53404 10.7253 4.72528C10.534 4.91652 10.27 5.01655 10 5C9.73005 5.01655 9.46596 4.91652 9.27472 4.72528C9.08348 4.53404 8.98345 4.26995 9 4Z" fill="#F3F3F3"/>
</svg>
